<?xml version="1.0" encoding="iso-8859-1"?>
<!-- Generator: Adobe Illustrator 19.0.0, SVG Export Plug-In . SVG Version: 6.00 Build 0)  -->
<svg version="1.1" id="Layer_1" xmlns="http://www.w3.org/2000/svg" xmlns:xlink="http://www.w3.org/1999/xlink" x="0px" y="0px"
	 viewBox="0 0 511.998 511.998" style="enable-background:new 0 0 511.998 511.998;" xml:space="preserve">
<g>
	<path style="fill:#E7ECED;" d="M319.017,209.989c17.435,0,31.509,14.074,31.509,31.509s-14.074,31.509-31.509,31.509
		c-17.435,0-31.509-14.074-31.509-31.509S301.582,209.989,319.017,209.989z"/>
	<path style="fill:#E7ECED;" d="M192.98,209.989c17.435,0,31.509,14.074,31.509,31.509s-14.074,31.509-31.509,31.509
		s-31.509-14.074-31.509-31.509S175.544,209.989,192.98,209.989z"/>
</g>
<path style="fill:#546A79;" d="M292.654,357.033c0,0,4.516,47.054-36.656,47.264h-0.105h-0.105
	c-41.172-0.21-36.551-47.264-36.551-47.264h36.761H292.654z"/>
<path style="fill:#A58763;" d="M255.998,504.076C108.955,488.322,100.762,330.46,82.697,209.989c-1.26-8.192,0-199.559,0-199.559
	s91.692,26.258,121.836,102.721c28.884-3.571,51.465-2.941,51.465-2.941s22.582-0.63,51.465,2.941
	C337.608,36.687,429.3,10.43,429.3,10.43s1.26,191.367,0,199.559C411.234,330.46,403.042,488.322,255.998,504.076z M255.998,404.297
	c41.172-0.21,36.656-47.264,36.656-47.264h-36.656h-36.761c0,0-4.621,47.054,36.551,47.264h0.105H255.998z M350.526,241.498
	c0-17.435-14.074-31.509-31.509-31.509c-17.435,0-31.509,14.074-31.509,31.509s14.074,31.509,31.509,31.509
	C336.452,273.008,350.526,258.934,350.526,241.498z M224.489,241.498c0-17.435-14.074-31.509-31.509-31.509
	s-31.509,14.074-31.509,31.509s14.074,31.509,31.509,31.509S224.489,258.934,224.489,241.498z"/>
<path style="fill:#947A59;" d="M288.59,383.528c-4.511,10.733-13.725,20.673-32.591,20.77h-0.105h-0.105
	c-41.172-0.21-36.551-47.264-36.551-47.264h25.038c-75.604-51.882-133.294-127.857-162.128-216.912
	c-0.047,36.215,0.063,66.704,0.549,69.868c18.065,120.471,26.258,278.333,173.302,294.087c63.636-6.819,101.24-40.277,124.92-85.778
	C348.48,410.315,317.561,398.547,288.59,383.528z"/>
<g>
	<rect x="287.511" y="427.929" style="fill:#FFFFFF;" width="31.509" height="15.755"/>
	<rect x="161.473" y="396.419" style="fill:#FFFFFF;" width="31.509" height="15.755"/>
</g>
<rect x="192.983" y="427.929" width="31.509" height="15.755"/>
<rect x="319.02" y="396.419" width="31.509" height="15.755"/>
<path d="M437.109,0l-9.977,2.858c-0.978,0.279-24.244,7.042-51.519,23.516c-34.327,20.734-59.489,47.7-73.119,78.27
	c-25.08-2.715-44.119-2.369-46.496-2.315c-2.38-0.055-21.419-0.399-46.496,2.315c-13.632-30.571-38.792-57.536-73.119-78.27
	C109.11,9.899,85.844,3.137,84.866,2.858L74.889,0c0,0-1.268,202.799,0.019,211.158c1.562,10.415,3.021,20.908,4.567,32.015
	c2.125,15.285,4.324,31.09,6.832,46.834l15.558-2.478c-2.483-15.591-4.67-31.317-6.786-46.527
	c-1.547-11.124-3.008-21.632-4.583-32.135c-0.809-7.468-0.456-112.208,0.009-187.398c23.894,9.123,84.062,37.143,106.701,94.57
	l2.238,5.677l6.057-0.749c27.891-3.448,50.062-2.889,50.28-2.884l0.22,0.006l0.22-0.006c0.22-0.006,22.309-0.573,50.279,2.884
	l6.057,0.749l2.238-5.678c22.586-57.292,82.796-85.395,106.701-94.554c0.464,75.189,0.816,179.919,0.009,187.383
	c-1.571,10.481-3.034,20.998-4.583,32.13c-8.074,58.041-16.422,118.058-39.305,166.327c-12.162,25.653-27.109,45.169-45.692,59.664
	c-18.997,14.818-41.338,24.041-68.048,28.108v-83.505c9.876-1.451,18.006-5.638,24.224-12.517
	c14.748-16.316,12.497-41.722,12.395-42.796l-0.684-7.124h-87.716l-0.697,7.107c-0.106,1.073-2.415,26.487,12.308,42.809
	c6.25,6.931,14.444,11.133,24.416,12.554v83.482c-42.189-6.451-74.21-26.07-97.683-59.803
	c-19.762-28.399-33.766-67.085-44.076-121.747l-15.482,2.92c10.735,56.922,25.551,97.538,46.627,127.825
	c27.828,39.991,66.314,62.104,117.654,67.605l0.839,0.089l0.839-0.089c62.832-6.733,106.994-38.734,135.013-97.835
	c23.919-50.454,32.82-114.446,40.674-170.906c1.545-11.107,3.004-21.598,4.561-31.982C438.376,202.797,437.109,0,437.109,0z
	 M235.447,388.567c-6.221-6.86-7.955-16.927-8.369-23.656h57.702c-0.439,6.728-2.199,16.778-8.367,23.6
	c-4.769,5.276-11.46,7.863-20.415,7.909h-0.192C246.854,396.37,240.195,393.802,235.447,388.567z"/>
<path d="M232.367,241.499c0-21.718-17.668-39.387-39.387-39.387s-39.387,17.668-39.387,39.387s17.668,39.387,39.387,39.387
	S232.367,263.217,232.367,241.499z M192.981,265.131c-13.03,0-23.632-10.601-23.632-23.632c0-13.031,10.602-23.632,23.632-23.632
	s23.632,10.601,23.632,23.632C216.613,254.531,206.011,265.131,192.981,265.131z"/>
<path d="M279.631,241.499c0,21.718,17.668,39.387,39.387,39.387c21.718,0,39.387-17.668,39.387-39.387s-17.668-39.387-39.387-39.387
	C297.3,202.113,279.631,219.781,279.631,241.499z M342.65,241.499c0,13.031-10.602,23.632-23.632,23.632
	s-23.632-10.601-23.632-23.632c0-13.031,10.602-23.632,23.632-23.632S342.65,228.468,342.65,241.499z"/>
<path d="M111.581,57.343v100.132h15.755V90.812c14.067,13.513,31.509,34.179,31.509,50.907H174.6
	c0-15.073-8.631-32.307-25.655-51.221C136.802,77.006,111.581,57.343,111.581,57.343z"/>
<path d="M400.417,157.474V57.343c0,0-25.221,19.663-37.364,33.156c-17.023,18.914-25.655,36.148-25.655,51.221h15.755
	c0-16.729,17.443-37.395,31.509-50.908v66.662H400.417z"/>
<rect x="183.519" y="233.621" width="17.704" height="15.755"/>
<rect x="310.607" y="233.621" width="17.704" height="15.755"/>
<g>
</g>
<g>
</g>
<g>
</g>
<g>
</g>
<g>
</g>
<g>
</g>
<g>
</g>
<g>
</g>
<g>
</g>
<g>
</g>
<g>
</g>
<g>
</g>
<g>
</g>
<g>
</g>
<g>
</g>
</svg>
