<?xml version="1.0" encoding="iso-8859-1"?>
<!-- Generator: Adobe Illustrator 18.0.0, SVG Export Plug-In . SVG Version: 6.00 Build 0)  -->
<!DOCTYPE svg PUBLIC "-//W3C//DTD SVG 1.1//EN" "http://www.w3.org/Graphics/SVG/1.1/DTD/svg11.dtd">
<svg version="1.1" id="Capa_1" xmlns="http://www.w3.org/2000/svg" xmlns:xlink="http://www.w3.org/1999/xlink" x="0px" y="0px"
	 viewBox="0 0 297.5 297.5" style="enable-background:new 0 0 297.5 297.5;" xml:space="preserve">
<g>
	<g id="XMLID_50_">
		<g>
			<path style="fill:#8E4942;" d="M148.75,81.65c37,0,67.1,30.1,67.1,67.1s-30.1,67.1-67.1,67.1s-67.1-30.1-67.1-67.1
				S111.75,81.65,148.75,81.65z M204.85,148.75c0-30.93-25.16-56.1-56.1-56.1c-30.93,0-56.1,25.17-56.1,56.1s25.17,56.1,56.1,56.1
				C179.69,204.85,204.85,179.68,204.85,148.75z"/>
			<path style="fill:#8E4942;" d="M174.42,253.76c1.88,1.87,3.87,3.59,5.95,5.17c-6.22,11.04-18.06,18.52-31.62,18.52
				s-25.39-7.48-31.62-18.52c2.08-1.57,4.08-3.29,5.96-5.17c5.61-5.62,9.78-12.14,12.51-19.1c4.29,0.65,8.68,0.99,13.15,0.99
				s8.86-0.34,13.15-0.99C164.63,241.62,168.8,248.14,174.42,253.76z"/>
			<path style="fill:#8E4942;" d="M62.84,135.63c-0.65,4.28-0.99,8.66-0.99,13.12s0.34,8.84,0.99,13.12
				c-7.07,2.78-13.56,7.01-19.09,12.55c-1.89,1.89-3.6,3.88-5.17,5.96c-11.05-6.23-18.53-18.07-18.53-31.63s7.48-25.39,18.52-31.62
				c1.58,2.08,3.3,4.07,5.18,5.95C49.28,128.62,55.77,132.85,62.84,135.63z"/>
			<path style="fill:#8E4942;" d="M180.38,38.57c-2.09,1.57-4.08,3.3-5.96,5.18c-5.53,5.53-9.77,12.02-12.55,19.09
				c-4.28-0.65-8.66-0.99-13.12-0.99s-8.84,0.34-13.12,0.99c-2.78-7.07-7.01-13.56-12.54-19.09c-1.88-1.88-3.88-3.61-5.97-5.18
				c6.23-11.05,18.07-18.52,31.63-18.52S174.15,27.53,180.38,38.57z"/>
			<path style="fill:#8E4942;" d="M258.93,117.13c11.04,6.23,18.52,18.06,18.52,31.62s-7.48,25.4-18.53,31.63
				c-1.56-2.08-3.27-4.07-5.16-5.96c-5.54-5.54-12.03-9.77-19.1-12.55c0.65-4.28,0.99-8.66,0.99-13.12s-0.34-8.84-0.99-13.12
				c7.07-2.78,13.56-7.01,19.1-12.55C255.64,121.2,257.36,119.21,258.93,117.13z"/>
			<path style="fill:#D5797C;" d="M239.76,57.75c6.85,6.85,10.63,15.97,10.63,25.66c0,9.7-3.78,18.81-10.63,25.67
				c-3.06,3.06-6.58,5.48-10.39,7.24c-8.83-21.87-26.31-39.36-48.19-48.19c1.77-3.81,4.18-7.33,7.24-10.38
				c6.86-6.86,15.97-10.64,25.67-10.64S232.9,50.89,239.76,57.75z"/>
			<path style="fill:#D5797C;" d="M109.08,57.75c3.06,3.05,5.48,6.57,7.25,10.38c-21.88,8.83-39.37,26.32-48.2,48.19
				c-3.8-1.76-7.32-4.18-10.38-7.24c-6.86-6.86-10.63-15.97-10.63-25.67c0-9.69,3.77-18.81,10.63-25.66
				c6.85-6.86,15.97-10.64,25.67-10.64C93.11,47.11,102.23,50.89,109.08,57.75z"/>
			<path style="fill:#D5797C;" d="M116.31,229.36c-1.74,3.77-4.13,7.3-7.23,10.39c-6.85,6.86-15.97,10.64-25.66,10.64
				c-9.7,0-18.82-3.78-25.67-10.64c-14.15-14.15-14.15-37.18,0-51.33c3.06-3.06,6.58-5.48,10.38-7.24
				C76.96,203.05,94.44,220.53,116.31,229.36z"/>
			<path style="fill:#D5797C;" d="M239.76,188.42c14.15,14.15,14.15,37.18,0,51.33c-6.86,6.86-15.97,10.64-25.67,10.64
				s-18.81-3.78-25.67-10.64c-3.1-3.09-5.49-6.62-7.23-10.39c21.87-8.83,39.35-26.31,48.18-48.18
				C233.18,182.94,236.7,185.36,239.76,188.42z"/>
			<path style="fill:#DEC978;" d="M148.75,112.45c20.02,0,36.3,16.28,36.3,36.3s-16.28,36.3-36.3,36.3
				c-20.01,0-36.3-16.28-36.3-36.3S128.74,112.45,148.75,112.45z"/>
			<path d="M267.87,99.44c17.49,9.51,29.38,28.04,29.38,49.31s-11.91,39.8-29.41,49.31c5.66,19.1,0.97,40.64-14.08,55.7
				c-10.6,10.59-24.69,16.43-39.67,16.43c-5.51,0-10.9-0.8-16.04-2.33c-9.51,17.49-28.03,29.39-49.3,29.39
				c-21.26,0-39.78-11.9-49.29-29.39c-5.14,1.53-10.53,2.33-16.04,2.33c-14.99,0-29.08-5.84-39.67-16.43
				C28.7,238.7,24,217.16,29.67,198.06c-17.5-9.51-29.42-28.04-29.42-49.31c0-21.26,11.91-39.78,29.39-49.29
				c-1.53-5.14-2.32-10.53-2.32-16.05c0-14.98,5.83-29.07,16.43-39.66c10.59-10.6,24.68-16.44,39.67-16.44
				c5.51,0,10.9,0.8,16.04,2.33c9.51-17.49,28.03-29.39,49.29-29.39c21.27,0,39.79,11.9,49.3,29.39c5.14-1.53,10.53-2.33,16.04-2.33
				c14.98,0,29.07,5.84,39.67,16.44c10.59,10.59,16.43,24.68,16.43,39.66C270.19,88.92,269.39,94.3,267.87,99.44z M277.45,148.75
				c0-13.56-7.48-25.39-18.52-31.62c-1.57,2.08-3.29,4.07-5.17,5.95c-5.54,5.54-12.03,9.77-19.1,12.55
				c0.65,4.28,0.99,8.66,0.99,13.12s-0.34,8.84-0.99,13.12c7.07,2.78,13.56,7.01,19.1,12.55c1.89,1.89,3.6,3.88,5.16,5.96
				C269.97,174.15,277.45,162.31,277.45,148.75z M250.39,83.41c0-9.69-3.78-18.81-10.63-25.66c-6.86-6.86-15.97-10.64-25.67-10.64
				s-18.81,3.78-25.67,10.64c-3.06,3.05-5.47,6.57-7.24,10.38c21.88,8.83,39.36,26.32,48.19,48.19c3.81-1.76,7.33-4.18,10.39-7.24
				C246.61,102.22,250.39,93.11,250.39,83.41z M239.76,239.75c14.15-14.15,14.15-37.18,0-51.33c-3.06-3.06-6.58-5.48-10.39-7.24
				c-8.83,21.87-26.31,39.35-48.18,48.18c1.74,3.77,4.13,7.3,7.23,10.39c6.86,6.86,15.97,10.64,25.67,10.64
				S232.9,246.61,239.76,239.75z M215.85,148.75c0-37-30.1-67.1-67.1-67.1s-67.1,30.1-67.1,67.1s30.1,67.1,67.1,67.1
				S215.85,185.75,215.85,148.75z M174.42,43.75c1.88-1.88,3.87-3.61,5.96-5.18c-6.23-11.04-18.07-18.52-31.63-18.52
				s-25.4,7.47-31.63,18.52c2.09,1.57,4.09,3.3,5.97,5.18c5.53,5.53,9.76,12.02,12.54,19.09c4.28-0.65,8.66-0.99,13.12-0.99
				s8.84,0.34,13.12,0.99C164.65,55.77,168.89,49.28,174.42,43.75z M180.37,258.93c-2.08-1.58-4.07-3.3-5.95-5.17
				c-5.62-5.62-9.79-12.14-12.52-19.1c-4.29,0.65-8.68,0.99-13.15,0.99s-8.86-0.34-13.15-0.99c-2.73,6.96-6.9,13.48-12.51,19.1
				c-1.88,1.88-3.88,3.6-5.96,5.17c6.23,11.04,18.06,18.52,31.62,18.52S174.15,269.97,180.37,258.93z M109.08,239.75
				c3.1-3.09,5.49-6.62,7.23-10.39c-21.87-8.83-39.35-26.31-48.18-48.18c-3.8,1.76-7.32,4.18-10.38,7.24
				c-14.15,14.15-14.15,37.18,0,51.33c6.85,6.86,15.97,10.64,25.67,10.64C93.11,250.39,102.23,246.61,109.08,239.75z M116.33,68.13
				c-1.77-3.81-4.19-7.33-7.25-10.38c-6.85-6.86-15.97-10.64-25.66-10.64c-9.7,0-18.82,3.78-25.67,10.64
				c-6.86,6.85-10.63,15.97-10.63,25.66c0,9.7,3.77,18.81,10.63,25.67c3.06,3.06,6.58,5.48,10.38,7.24
				C76.96,94.45,94.45,76.96,116.33,68.13z M61.85,148.75c0-4.46,0.34-8.84,0.99-13.12c-7.07-2.78-13.56-7.01-19.09-12.55
				c-1.88-1.88-3.6-3.87-5.18-5.95c-11.04,6.23-18.52,18.06-18.52,31.62s7.48,25.4,18.53,31.63c1.57-2.08,3.28-4.07,5.17-5.96
				c5.53-5.54,12.02-9.77,19.09-12.55C62.19,157.59,61.85,153.21,61.85,148.75z"/>
			<path d="M148.75,92.65c30.94,0,56.1,25.17,56.1,56.1s-25.16,56.1-56.1,56.1c-30.93,0-56.1-25.17-56.1-56.1
				S117.82,92.65,148.75,92.65z M185.05,148.75c0-20.02-16.28-36.3-36.3-36.3c-20.01,0-36.3,16.28-36.3,36.3s16.29,36.3,36.3,36.3
				C168.77,185.05,185.05,168.77,185.05,148.75z"/>
		</g>
		<g>
		</g>
	</g>
</g>
<g>
</g>
<g>
</g>
<g>
</g>
<g>
</g>
<g>
</g>
<g>
</g>
<g>
</g>
<g>
</g>
<g>
</g>
<g>
</g>
<g>
</g>
<g>
</g>
<g>
</g>
<g>
</g>
<g>
</g>
</svg>
